<?xml version="1.0" standalone="no"?><!DOCTYPE svg PUBLIC "-//W3C//DTD SVG 1.1//EN" "http://www.w3.org/Graphics/SVG/1.1/DTD/svg11.dtd"><svg class="icon" height="512" viewBox="0 0 1024 1024" version="1.1" xmlns="http://www.w3.org/2000/svg"><path d="M509.02016 98.99008C280.91392 98.99008 96 283.89888 96 512c0 228.10624 184.9088 413.01504 413.01504 413.01504 228.10112 0 413.00992-184.9088 413.00992-413.01504 0.00512-228.10112-184.90368-413.00992-413.0048-413.00992z m0 757.19168c-142.69952 0-265.088-86.8352-317.25056-210.52928L474.59328 362.8032v98.29376h68.8384V254.592H336.92672v68.83328h79.70816l-246.53312 246.53824c-3.21536-18.88256-5.26336-38.17472-5.26336-57.96352 0-190.08512 154.09152-344.17664 344.18176-344.17664 125.80864 0 235.53536 67.73248 295.57248 168.49408l-312.78592 312.79104v-85.84704H422.96832v206.51008h206.51008v-68.8384h-92.15488l297.95328-297.94816c11.45856 34.29376 17.91488 70.8608 17.91488 109.01504 0.00512 190.09024-154.0864 344.18176-344.17152 344.18176z" fill="" /></svg>